<svg width="24" height="24" viewBox="0 0 24 24" fill="none" xmlns="http://www.w3.org/2000/svg">
<g clip-path="url(#clip0_31_1853)">
<path d="M14.2555 9.02177C14.0917 9.02177 13.9311 8.99327 13.7768 8.93754L12.3171 8.40746C11.9648 8.27953 11.6829 8.02113 11.5235 7.68041C11.3642 7.33969 11.347 6.9578 11.4753 6.60632L12.2575 4.46319C12.4594 3.91031 12.992 3.53918 13.5844 3.53918C13.7482 3.53918 13.9088 3.56768 14.0631 3.62341L15.5227 4.1535C16.2529 4.41822 16.6306 5.22633 16.3646 5.95464L15.5824 8.09777C15.3805 8.65065 14.8478 9.02177 14.2561 9.02177H14.2555Z" fill="#2C6785"/>
<path d="M13.5834 3.77358C13.7161 3.77358 13.8507 3.79638 13.9821 3.84388L15.4417 4.37396C16.0487 4.59436 16.3643 5.26947 16.1433 5.87491L15.3611 8.01804C15.1878 8.49239 14.7351 8.78815 14.2551 8.78815C14.1224 8.78815 13.9878 8.76535 13.8564 8.71785L12.3968 8.18777C11.7898 7.96738 11.4743 7.29226 11.6952 6.68682L12.4774 4.54369C12.6507 4.06934 13.1034 3.77358 13.5834 3.77358ZM13.5834 3.30493C12.8933 3.30493 12.2717 3.73812 12.0361 4.38346L11.2539 6.52659C10.9441 7.37586 11.3847 8.31886 12.2361 8.62792L13.6958 9.158C13.8761 9.22323 14.064 9.2568 14.2551 9.2568C14.9453 9.2568 15.5668 8.82361 15.8024 8.17827L16.5846 6.03514C16.7344 5.62475 16.7141 5.18017 16.5287 4.78245C16.3427 4.38473 16.0138 4.08327 15.6024 3.93444L14.1427 3.40436C13.9624 3.33913 13.7745 3.30556 13.5834 3.30556V3.30493Z" fill="black"/>
<path d="M13.0312 5.47082C13.0382 4.85904 13.3316 4.26943 13.6357 3.74504C14.5061 2.24789 16.0769 1.094 17.8374 1.00787C19.831 0.880571 21.377 2.31122 20.7923 4.34289C20.304 6.00217 18.4946 6.8907 17.0038 7.56138C16.6172 7.73998 15.6635 6.04333 16.4311 5.69311C17.1733 5.35429 18.167 5.0104 18.5803 4.24409C18.8622 3.72224 18.5892 3.0902 17.9949 3.0712H17.9866C17.2711 3.03637 16.2705 3.62155 15.7512 4.33846C15.388 4.80647 15.1937 5.36442 14.8674 5.86347C14.3017 6.74188 13.0554 6.66525 13.0319 5.50755V5.47145L13.0312 5.47082Z" fill="#AD7AFD" stroke="black" stroke-width="0.74" stroke-linecap="round" stroke-linejoin="round"/>
<g style="mix-blend-mode:color-burn">
<path d="M20.7921 4.34292C20.3039 6.0022 18.4944 6.89074 17.0037 7.56141C16.617 7.74001 15.6634 6.04336 16.431 5.69314C17.1732 5.35432 18.1668 5.01043 18.5801 4.24412C18.862 3.72227 17.9865 3.0706 17.9865 3.0706C16.0202 2.77991 21.3762 2.31125 20.7915 4.34292H20.7921Z" fill="#AD7AFD"/>
</g>
<path d="M13.3671 23.9483C13.141 23.9483 12.9188 23.9091 12.7055 23.8318L3.51593 20.4955C2.50771 20.1294 1.98582 19.0129 2.3528 18.0072L7.36978 4.25674C7.6485 3.49296 8.38499 2.97998 9.20274 2.97998C9.42876 2.97998 9.65098 3.01925 9.86431 3.09651L19.0539 6.4328C19.5408 6.60949 19.93 6.96605 20.1503 7.43723C20.3706 7.90842 20.3941 8.43533 20.217 8.92108L15.2 22.6709C14.9213 23.4347 14.1848 23.9477 13.3671 23.9477V23.9483ZM10.7443 6.81405C10.3341 6.81405 9.96779 7.06358 9.83256 7.4347C9.74621 7.67219 9.76082 7.93122 9.87319 8.16428C9.98684 8.39987 10.1868 8.57909 10.4351 8.66902L15.026 10.3359C15.1378 10.3764 15.254 10.3967 15.3714 10.3967C15.7816 10.3967 16.1479 10.1472 16.2831 9.77606C16.4635 9.28144 16.193 8.72729 15.6806 8.5411L11.0897 6.87422C10.9779 6.83369 10.8617 6.81342 10.7443 6.81342V6.81405Z" fill="#60DB1A"/>
<path d="M9.20273 3.2144C9.39574 3.2144 9.59256 3.24733 9.78367 3.317L18.9732 6.65329C19.8576 6.97438 20.3179 7.95918 19.996 8.84138L14.9791 22.5919C14.727 23.2834 14.0661 23.7147 13.3664 23.7147C13.1734 23.7147 12.9766 23.6818 12.7855 23.6121L3.59593 20.2758C2.71151 19.9547 2.25121 18.9699 2.5731 18.0877L7.59009 4.33663C7.84214 3.64505 8.50307 3.21377 9.20273 3.21377M15.3714 10.6311C15.8667 10.6311 16.3295 10.3347 16.5041 9.85658C16.7282 9.24227 16.3936 8.55132 15.7613 8.32143L11.1703 6.65455C11.03 6.60326 10.8859 6.57919 10.7443 6.57919C10.2491 6.57919 9.78621 6.87558 9.61161 7.35373C9.38749 7.96804 9.72208 8.65899 10.3544 8.88888L14.9454 10.5558C15.0857 10.6071 15.2298 10.6311 15.3714 10.6311ZM9.20273 2.74575C8.28657 2.74575 7.4612 3.3208 7.14883 4.17704L2.13185 17.9269C1.93312 18.4709 1.95979 19.0618 2.20677 19.5893C2.45374 20.1175 2.88992 20.5171 3.4353 20.7154L12.6248 24.0516C12.8636 24.1384 13.1131 24.1821 13.3664 24.1821C14.2826 24.1821 15.1079 23.6071 15.4203 22.7508L20.4373 9.00034C20.8487 7.87305 20.264 6.62225 19.1338 6.21187L9.9443 2.87558C9.70558 2.78882 9.45606 2.74512 9.20273 2.74512V2.74575ZM15.3714 10.1625C15.2813 10.1625 15.1918 10.1466 15.106 10.1156L10.5151 8.44873C10.124 8.30687 9.91636 7.88761 10.0529 7.51396C10.1545 7.2353 10.4325 7.04784 10.7443 7.04784C10.8344 7.04784 10.9239 7.06367 11.0097 7.09471L15.6006 8.76158C15.9917 8.90345 16.1993 9.3227 16.0628 9.69635C15.9613 9.97501 15.6832 10.1625 15.3714 10.1625Z" fill="black"/>
<mask id="mask0_31_1853" style="mask-type:luminance" maskUnits="userSpaceOnUse" x="2" y="3" width="19" height="21">
<path d="M18.9854 6.65713L9.79585 3.32084C8.91143 2.99975 7.92416 3.4589 7.60227 4.34111L2.58465 18.0916C2.26275 18.9738 2.72306 19.9586 3.60747 20.2797L12.797 23.616C13.6814 23.9371 14.6687 23.4779 14.9906 22.5957L20.0076 8.84522C20.3295 7.96302 19.8692 6.97822 18.9848 6.65713H18.9854ZM14.9576 10.5602L10.3666 8.89336C9.73363 8.66346 9.39903 7.97315 9.62379 7.35821C9.84854 6.74326 10.5495 6.42914 11.1818 6.65903L15.7728 8.32591C16.4058 8.5558 16.7404 9.24611 16.5156 9.86106C16.2915 10.4754 15.5899 10.7901 14.9576 10.5602Z" fill="white"/>
</mask>
<g mask="url(#mask0_31_1853)">
<path d="M20.9715 6.96484L16.5609 8.84388L12.0283 20.9439L14.4009 24.4075L20.9715 6.96484Z" fill="#449D83"/>
<path d="M7.82275 1.9541L9.70714 6.35309L17.265 9.21439L20.7373 6.8477L7.82275 1.9541Z" fill="white"/>
<path d="M1.15234 20.234L5.43094 18.0725L13.0643 20.7267L14.1995 24.766L1.15234 20.234Z" fill="#2C6785"/>
<path d="M14.2094 21.8482C13.9968 22.4315 13.3466 22.7362 12.7657 22.5253L4.31135 19.4556C3.72978 19.2447 3.42884 18.5943 3.64153 18.011L8.38614 5.00721C8.59883 4.42393 9.24897 4.1193 9.8299 4.3302L18.2842 7.39986C18.8658 7.61075 19.1667 8.26117 18.9541 8.84445L14.2094 21.8482Z" fill="#C3F527"/>
<path d="M10.5445 17.1536C10.6651 17.614 10.9921 18.0067 11.4619 18.1821C12.2441 18.4735 13.1241 18.0542 13.427 17.2455C13.5254 16.982 13.5501 16.7103 13.512 16.4538L10.5445 17.1543V17.1536ZM7.59604 14.3056C7.40112 14.4779 7.24494 14.7021 7.15097 14.9668C6.86209 15.7806 7.26525 16.666 8.05253 16.944C8.52553 17.1112 9.02901 17.0206 9.4182 16.7445L7.59667 14.305L7.59604 14.3056ZM8.95091 17.8541C8.95091 17.8541 10.1915 18.2949 10.1915 18.293L9.95914 17.0542L8.95091 17.8547V17.8541ZM11.7565 19.1942L10.9718 20.4304C10.8772 20.6964 6.9478 19.2645 7.0424 18.9985L7.257 17.6033C6.19989 16.5665 5.74149 15.1669 6.24179 13.7578C7.0024 11.6172 9.68041 10.2714 12.0911 11.1239C14.5018 11.9763 15.7329 14.704 14.9723 16.8446C14.472 18.2537 13.232 19.0523 11.7565 19.1942Z" fill="black"/>
<path d="M7.32638 7.85826L6.45996 10.2328L7.00884 10.4321L7.87527 8.05754L7.32638 7.85826Z" fill="black"/>
<path d="M8.19064 8.17186L7.32422 10.5464L7.9608 10.7775L8.82723 8.40298L8.19064 8.17186Z" fill="black"/>
<path d="M5.9841 7.37096L5.11768 9.74548L5.55797 9.90534L6.4244 7.53081L5.9841 7.37096Z" fill="black"/>
<path d="M6.72775 7.64098L5.86133 10.0155L6.13995 10.1167L7.00637 7.74213L6.72775 7.64098Z" fill="black"/>
<path d="M16.445 11.1673L15.5786 13.5419L16.2152 13.773L17.0816 11.3985L16.445 11.1673Z" fill="black"/>
<path d="M18.1638 11.7915L17.2974 14.166L18.4273 14.5763L19.2938 12.2017L18.1638 11.7915Z" fill="black"/>
<path d="M17.364 11.5007L16.4976 13.8752L16.772 13.9749L17.6384 11.6004L17.364 11.5007Z" fill="black"/>
<g style="mix-blend-mode:screen" opacity="0.35">
<path d="M18.8179 12.1315L3.81201 14.6755L4.72754 12.1834L19.729 9.6521L18.8179 12.1315Z" fill="#DCFF4A"/>
</g>
<path d="M16.9681 10.0106C16.6462 10.8928 15.6589 11.3519 14.7745 11.0308L10.1797 9.3627C9.29532 9.04161 8.83502 8.05681 9.15691 7.1746C9.47881 6.2924 10.4661 5.83325 11.3505 6.15434L15.9453 7.82248C16.8297 8.14357 17.29 9.12837 16.9681 10.0106Z" fill="#60DB1A"/>
<path d="M16.9681 10.0104C16.6462 10.8926 15.6589 11.3518 14.7745 11.0307L10.1797 9.36253C9.29532 9.04144 8.83502 8.05664 9.15691 7.17444C10.4566 7.66082 15.7592 9.61649 16.9681 10.0104Z" fill="#F8FDA2"/>
</g>
<path d="M14.2551 8.97494C14.097 8.97494 13.9415 8.9477 13.7923 8.89324L12.3326 8.36316C11.9923 8.23966 11.7193 7.99014 11.5657 7.66018C11.4114 7.33022 11.3949 6.96164 11.5187 6.62218L12.3009 4.47905C12.4958 3.94454 13.0113 3.58545 13.5834 3.58545C13.7415 3.58545 13.897 3.61268 14.0462 3.66715L15.5058 4.19723C16.2112 4.45372 16.5763 5.23459 16.3198 5.9382L15.5376 8.08133C15.3427 8.61585 14.8271 8.97494 14.2551 8.97494Z" fill="#2C6785"/>
<path d="M13.5837 3.7736C13.7164 3.7736 13.851 3.7964 13.9824 3.8439L15.4421 4.37398C16.049 4.59438 16.3646 5.26949 16.1436 5.87493L15.3614 8.01806C15.1881 8.49241 14.7354 8.78817 14.2554 8.78817C14.1227 8.78817 13.9881 8.76537 13.8567 8.71787L12.3971 8.18779C11.7901 7.9674 11.4746 7.29228 11.6955 6.68684L12.4777 4.54371C12.651 4.06936 13.1037 3.7736 13.5837 3.7736ZM13.5837 3.39868C12.9329 3.39868 12.3463 3.80717 12.1247 4.41515L11.3425 6.55828C11.0504 7.35942 11.4657 8.24795 12.2688 8.53928L13.7285 9.06936C13.898 9.13079 14.0757 9.16246 14.2554 9.16246C14.9062 9.16246 15.4928 8.75397 15.7144 8.14599L16.4966 6.00286C16.6376 5.61591 16.6192 5.19665 16.4433 4.82173C16.2681 4.44681 15.9576 4.16246 15.5703 4.02186L14.1107 3.49178C13.9411 3.43035 13.7634 3.39868 13.5837 3.39868Z" fill="black"/>
<path d="M12.4772 4.54346L11.8624 6.22824C11.6407 6.83596 11.9548 7.50792 12.5641 7.72912L13.564 8.09215C14.1732 8.31334 14.8469 8 15.0686 7.39228L15.6834 5.7075C15.9051 5.09978 15.591 4.42781 14.9818 4.20662L13.9818 3.84359C13.3726 3.62239 12.6989 3.93574 12.4772 4.54346Z" fill="#449D83"/>
<path d="M13.7514 5.37924C14.1752 5.2254 14.4278 4.85156 14.3156 4.54425C14.2035 4.23694 13.7691 4.11253 13.3454 4.26637C12.9216 4.42021 12.669 4.79405 12.7812 5.10136C12.8933 5.40867 13.3277 5.53308 13.7514 5.37924Z" fill="#40EDB7"/>
<g style="mix-blend-mode:screen" opacity="0.35">
<path d="M17.9833 14.3948L2.99072 16.9426L3.5507 15.4221L18.5331 12.885L17.9833 14.3948Z" fill="#DCFF4A"/>
</g>
</g>
<defs>
<clipPath id="clip0_31_1853">
<rect width="24" height="24" fill="white"/>
</clipPath>
</defs>
</svg>
